<svg xmlns="http://www.w3.org/2000/svg" xmlns:xlink="http://www.w3.org/1999/xlink" width="32" height="32" viewBox="0 0 32 32">
    <defs>
        <filter id="prefix__a" width="169.3%" height="157.9%" x="-34.6%" y="-20.7%" filterUnits="objectBoundingBox">
            <feOffset dy="2" in="SourceAlpha" result="shadowOffsetOuter1"/>
            <feGaussianBlur in="shadowOffsetOuter1" result="shadowBlurOuter1" stdDeviation="2"/>
            <feColorMatrix in="shadowBlurOuter1" values="0 0 0 0 0 0 0 0 0 0 0 0 0 0 0 0 0 0 0.5 0"/>
        </filter>
        <path id="prefix__b" d="M7.489 25.236v-2.335L1.216 13.1l-.021-.07c-.037-.127-.223-.774-.223-1.19 0-.2.025-.454.217-.64.214-.217.642-.33 1.263-.33 1.006 0 2.346 1.352 3.028 2.223l.397-.08v2.522h.269V2.19l.016-.063c.015-.058.101-.359.35-.61.3-.305.815-.466 1.487-.466.454 0 1.07.074 1.423.43.175.174.26.403.248.676l-.015.361-.018.007v8.028h.538v-3.67h2.83l.127.267c.02.018.045.035.071.055.256.198.732.567.732 1.502v1.846h.269V8.455h2.676l.196.314c.205.327.351.618.351 1.401v1.956h.537v-2.36h2.446l.107.169c.072.038.151.088.22.15.285.269.45.747.45 1.286v7.17l-2.74 6.695H7.488z"/>
    </defs>
    <g fill="none" fill-rule="evenodd" transform="translate(4 2)">
        <use fill="#000" filter="url(#prefix__a)" xlink:href="#prefix__b"/>
        <use fill="#FFF" xlink:href="#prefix__b"/>
        <path fill="#000" d="M20.65 18.44l-2.568 6.272H8.026V22.75L1.71 12.884c-.08-.273-.201-.768-.201-1.044 0-.215.045-.257.059-.27.08-.081.362-.175.883-.175.777 0 2.155 1.36 2.797 2.28l.09-.018v2.402h1.344V2.254s.054-.21.215-.372c.198-.202.59-.307 1.101-.307.492 0 .865.097 1.037.27.118.118.097.262.097.31l-.033.01v8.912h1.612v-3.67h1.95c.124.262.736.335.736 1.3v2.37h1.343V8.98h1.837c.161.262.312.432.312 1.19v2.48H18.5v-2.36h1.61l.034.056s.145.05.226.123c.153.144.28.482.28.902v7.069zm.688-8.991c-.527-.49-1.07-.47-1.236-.47h-1.789c-.381-1.048-1.168-1.31-1.643-1.31h-2.01c-.384-1.05-1.3-1.503-1.84-1.566l-.045-.008h-2.063v-3.84c0-.205.005-.85-.505-1.406-.478-.52-1.214-.784-2.19-.784-.953 0-1.627.26-2.13.768-.585.59-.547 1.298-.547 1.453v9.07c-1.075-.976-1.98-1.472-2.823-1.472C.355 9.884 0 11.111 0 11.84c0 .622.255 1.487.287 1.584l-.018.094 6.145 9.665v3.102h12.732l2.847-7.567V11.37c0-.858-.18-1.474-.655-1.922z"/>
    </g>
</svg>
